<svg xmlns="http://www.w3.org/2000/svg" viewBox="0 0 800 800">

<g stroke="white" stroke-width="1.2" stroke-opacity="0.35">
<line x1="50" y1="120" x2="180" y2="200"/>
<line x1="180" y1="200" x2="320" y2="140"/>
<line x1="320" y1="140" x2="480" y2="260"/>
<line x1="480" y1="260" x2="620" y2="160"/>
<line x1="620" y1="160" x2="750" y2="300"/>

<line x1="100" y1="420" x2="240" y2="500"/>
<line x1="240" y1="500" x2="380" y2="420"/>
<line x1="380" y1="420" x2="540" y2="540"/>
<line x1="540" y1="540" x2="700" y2="460"/>

<line x1="120" y1="650" x2="280" y2="700"/>
<line x1="280" y1="700" x2="420" y2="640"/>
<line x1="420" y1="640" x2="600" y2="720"/>
</g>

<g fill="white" fill-opacity="0.7">
<circle cx="50" cy="120" r="3"/>
<circle cx="180" cy="200" r="3"/>
<circle cx="320" cy="140" r="3"/>
<circle cx="480" cy="260" r="3"/>
<circle cx="620" cy="160" r="3"/>
<circle cx="750" cy="300" r="3"/>

<circle cx="100" cy="420" r="3"/>
<circle cx="240" cy="500" r="3"/>
<circle cx="380" cy="420" r="3"/>
<circle cx="540" cy="540" r="3"/>
<circle cx="700" cy="460" r="3"/>

<circle cx="120" cy="650" r="3"/>
<circle cx="280" cy="700" r="3"/>
<circle cx="420" cy="640" r="3"/>
<circle cx="600" cy="720" r="3"/>
</g>

</svg>